<?xml version="1.0" encoding="UTF-8" standalone="no"?><!-- Generator: Gravit.io --><svg xmlns="http://www.w3.org/2000/svg" xmlns:xlink="http://www.w3.org/1999/xlink" style="isolation:isolate" viewBox="0 0 308.474 44.137" width="308.474pt" height="44.137pt"><path d=" M 0.567 32.499 L 0.567 32.499 L 0.567 32.499 Q 0.625 32.268 0.654 32.153 L 0.654 32.153 L 0.654 32.153 Q 0.683 32.038 0.452 31.865 L 0.452 31.865 L 0.452 31.865 Q 0.337 31.462 0.625 31.346 L 0.625 31.346 L 0.625 31.346 Q 0.913 31.231 1.201 31.116 L 1.201 31.116 L 1.201 31.116 Q 1.489 27.659 2.382 24.807 L 2.382 24.807 L 2.382 24.807 Q 3.275 21.955 4.341 19.247 L 4.341 19.247 L 4.341 19.247 Q 5.407 16.539 6.473 13.802 L 6.473 13.802 L 6.473 13.802 Q 7.539 11.065 8.23 7.838 L 8.23 7.838 L 8.23 7.838 Q 8.979 7.089 9.469 6.052 L 9.469 6.052 L 9.469 6.052 Q 9.959 5.015 10.449 3.949 L 10.449 3.949 L 10.449 3.949 Q 10.938 2.883 11.601 1.904 L 11.601 1.904 L 11.601 1.904 Q 12.264 0.924 13.416 0.291 L 13.416 0.291 L 13.416 0.291 Q 13.934 0.348 14.367 0.492 L 14.367 0.492 L 14.367 0.492 Q 14.799 0.636 15.202 0.809 L 15.202 0.809 L 15.202 0.809 Q 15.605 0.982 16.066 1.097 L 16.066 1.097 L 16.066 1.097 Q 16.527 1.213 17.046 1.213 L 17.046 1.213 L 17.046 1.213 Q 17.276 1.501 17.449 1.875 L 17.449 1.875 L 17.449 1.875 Q 17.622 2.25 17.91 2.538 L 17.91 2.538 L 18.947 2.365 L 18.947 2.365 Q 19.696 2.999 20.272 3.949 L 20.272 3.949 L 20.272 3.949 Q 20.849 4.9 21.079 5.908 L 21.079 5.908 L 21.079 5.908 Q 21.309 6.917 21.021 7.867 L 21.021 7.867 L 21.021 7.867 Q 20.733 8.818 19.696 9.337 L 19.696 9.337 L 19.696 9.337 Q 19.754 9.682 19.696 9.855 L 19.696 9.855 L 19.696 9.855 Q 19.639 10.028 19.552 10.172 L 19.552 10.172 L 19.552 10.172 Q 19.466 10.316 19.466 10.46 L 19.466 10.46 L 19.466 10.46 Q 19.466 10.604 19.696 10.835 L 19.696 10.835 L 19.696 10.835 Q 19.062 11.353 18.544 12.131 L 18.544 12.131 L 18.544 12.131 Q 18.025 12.909 17.68 13.773 L 17.68 13.773 L 17.68 13.773 Q 17.334 14.637 17.132 15.502 L 17.132 15.502 L 17.132 15.502 Q 16.931 16.366 16.873 17.115 L 16.873 17.115 L 16.873 17.115 Q 18.544 15.386 20.791 13.888 L 20.791 13.888 L 20.791 13.888 Q 23.038 12.39 24.709 11.065 L 24.709 11.065 L 24.709 11.065 Q 26.034 10.143 27.042 9.308 L 27.042 9.308 L 27.042 9.308 Q 28.051 8.472 29.088 7.752 L 29.088 7.752 L 29.088 7.752 Q 30.125 7.032 31.248 6.369 L 31.248 6.369 L 31.248 6.369 Q 32.372 5.707 33.524 4.9 L 33.524 4.9 L 33.524 4.9 Q 34.101 4.67 34.417 4.785 L 34.417 4.785 L 34.417 4.785 Q 34.734 4.9 35.022 5.073 L 35.022 5.073 L 35.022 5.073 Q 35.08 4.67 34.85 4.583 L 34.85 4.583 L 34.85 4.583 Q 34.619 4.497 34.677 4.036 L 34.677 4.036 L 34.677 4.036 Q 35.656 3.748 36.434 3.344 L 36.434 3.344 L 36.434 3.344 Q 37.212 2.941 38.076 2.595 L 38.076 2.595 L 38.076 2.595 Q 38.652 3.229 39.228 3.949 L 39.228 3.949 L 39.228 3.949 Q 39.805 4.67 40.784 4.727 L 40.784 4.727 L 40.784 4.727 Q 41.13 5.476 41.62 5.851 L 41.62 5.851 L 41.62 5.851 Q 42.109 6.225 42.599 6.571 L 42.599 6.571 L 42.599 6.571 Q 43.089 6.917 43.434 7.406 L 43.434 7.406 L 43.434 7.406 Q 43.78 7.896 43.838 8.933 L 43.838 8.933 L 43.838 8.933 Q 43.607 9.394 43.29 9.942 L 43.29 9.942 L 43.29 9.942 Q 42.974 10.489 42.743 11.296 L 42.743 11.296 L 42.743 11.296 Q 41.36 12.563 39.949 13.514 L 39.949 13.514 L 39.949 13.514 Q 38.537 14.464 37.068 15.329 L 37.068 15.329 L 37.068 15.329 Q 35.599 16.193 34.072 17.115 L 34.072 17.115 L 34.072 17.115 Q 32.545 18.037 30.989 19.247 L 30.989 19.247 L 30.989 19.247 Q 30.643 19.765 30.125 20.169 L 30.125 20.169 L 30.125 20.169 Q 29.606 20.572 29.059 20.946 L 29.059 20.946 L 29.059 20.946 Q 28.512 21.321 28.022 21.724 L 28.022 21.724 L 28.022 21.724 Q 27.532 22.128 27.244 22.704 L 27.244 22.704 L 27.244 22.704 Q 27.014 22.704 26.841 22.733 L 26.841 22.733 L 26.841 22.733 Q 26.668 22.761 26.437 22.819 L 26.437 22.819 L 26.437 22.819 Q 26.207 23.28 25.775 23.568 L 25.775 23.568 L 25.775 23.568 Q 25.343 23.856 25.17 24.317 L 25.17 24.317 L 25.17 24.317 Q 26.207 26.564 27.878 27.716 L 27.878 27.716 L 27.878 27.716 Q 29.549 28.869 31.623 29.387 L 31.623 29.387 L 31.623 29.387 Q 33.697 29.906 36.117 29.963 L 36.117 29.963 L 36.117 29.963 Q 38.537 30.021 41.13 30.021 L 41.13 30.021 L 41.13 30.021 Q 41.418 29.963 41.389 29.704 L 41.389 29.704 L 41.389 29.704 Q 41.36 29.445 41.706 29.503 L 41.706 29.503 L 41.706 29.503 Q 42.57 29.791 43.146 30.194 L 43.146 30.194 L 43.146 30.194 Q 43.723 30.597 44.241 31.058 L 44.241 31.058 L 44.241 31.058 Q 44.76 31.519 45.249 32.009 L 45.249 32.009 L 45.249 32.009 Q 45.739 32.499 46.373 33.017 L 46.373 33.017 L 46.373 33.017 Q 46.258 35.725 44.788 37.425 L 44.788 37.425 L 44.788 37.425 Q 43.319 39.125 40.899 40.162 L 40.899 40.162 L 40.899 40.162 Q 37.558 40.277 35.08 39.989 L 35.08 39.989 L 35.08 39.989 Q 32.602 39.701 30.183 38.721 L 30.183 38.721 L 30.183 38.721 Q 30.01 38.664 29.866 38.376 L 29.866 38.376 L 29.866 38.376 Q 29.722 38.088 29.606 37.972 L 29.606 37.972 L 29.606 37.972 Q 29.145 37.684 28.569 37.742 L 28.569 37.742 L 28.569 37.742 Q 27.993 37.799 27.59 37.627 L 27.59 37.627 L 27.59 37.627 Q 27.071 37.396 25.89 36.589 L 25.89 36.589 L 25.89 36.589 Q 24.709 35.783 23.729 35.091 L 23.729 35.091 L 23.729 35.091 Q 22.519 34.112 21.396 33.161 L 21.396 33.161 L 21.396 33.161 Q 20.272 32.211 19.408 31.058 L 19.408 31.058 L 19.408 31.058 Q 19.235 30.77 18.918 30.77 L 18.918 30.77 L 18.918 30.77 Q 18.601 30.77 18.313 30.597 L 18.313 30.597 L 18.313 30.597 Q 16.297 31.865 14.943 33.737 L 14.943 33.737 L 14.943 33.737 Q 13.589 35.61 12.321 37.54 L 12.321 37.54 L 12.321 37.54 Q 11.054 39.47 9.642 41.17 L 9.642 41.17 L 9.642 41.17 Q 8.23 42.87 6.099 43.792 L 6.099 43.792 L 6.099 43.792 Q 5.465 43.792 5.004 43.59 L 5.004 43.59 L 5.004 43.59 Q 4.543 43.388 4.14 43.071 L 4.14 43.071 L 4.14 43.071 Q 3.736 42.755 3.333 42.466 L 3.333 42.466 L 3.333 42.466 Q 2.93 42.178 2.411 42.063 L 2.411 42.063 L 2.411 42.063 Q 2.411 41.256 2.094 40.536 L 2.094 40.536 L 2.094 40.536 Q 1.777 39.816 1.46 39.211 L 1.46 39.211 L 1.46 39.211 Q 1.143 38.606 0.999 38.03 L 0.999 38.03 L 0.999 38.03 Q 0.855 37.454 1.316 36.878 L 1.316 36.878 L 1.316 36.878 Q 0.683 36.359 0.106 36.013 L 0.106 36.013 L 0.106 36.013 Q 0.51 35.61 0.481 35.264 L 0.481 35.264 L 0.481 35.264 Q 0.452 34.919 0.279 34.573 L 0.279 34.573 L 0.279 34.573 Q 0.106 34.227 0.02 33.853 L 0.02 33.853 L 0.02 33.853 Q -0.066 33.478 0.222 33.017 L 0.222 33.017 L 0.222 33.017 Q 0.452 32.96 0.423 32.787 L 0.423 32.787 L 0.423 32.787 Q 0.394 32.614 0.567 32.499 Z  M 75.815 37.972 L 75.7 38.203 L 75.7 38.203 Q 75.354 39.182 74.692 40.191 L 74.692 40.191 L 74.692 40.191 Q 74.029 41.199 73.136 41.977 L 73.136 41.977 L 73.136 41.977 Q 72.243 42.755 71.148 43.273 L 71.148 43.273 L 71.148 43.273 Q 70.054 43.792 68.844 43.849 L 68.844 43.849 L 68.844 43.849 Q 68.095 43.676 67.835 43.475 L 67.835 43.475 L 67.835 43.475 Q 67.576 43.273 67.288 43.1 L 67.288 43.1 L 67.288 43.1 Q 67.115 42.985 66.971 42.899 L 66.971 42.899 L 66.971 42.899 Q 66.827 42.812 66.712 42.755 L 66.712 42.755 L 66.02 42.466 L 66.251 41.717 L 66.251 41.717 Q 66.366 41.256 66.193 40.997 L 66.193 40.997 L 66.193 40.997 Q 66.02 40.738 65.502 40.277 L 65.502 40.277 L 65.502 40.277 Q 65.329 40.104 65.156 39.931 L 65.156 39.931 L 65.156 39.931 Q 64.983 39.758 64.868 39.586 L 64.868 39.586 L 63.889 38.491 L 65.444 38.088 L 65.444 38.088 Q 66.885 37.684 67.374 37.05 L 67.374 37.05 L 67.374 37.05 Q 67.864 36.417 67.749 34.919 L 67.749 34.919 L 67.749 34.919 Q 66.597 34.688 65.819 34.861 L 65.819 34.861 L 65.819 34.861 Q 65.041 35.034 64.234 35.264 L 64.234 35.264 L 64.234 35.264 Q 63.197 35.552 62.131 35.754 L 62.131 35.754 L 62.131 35.754 Q 61.065 35.956 59.798 35.956 L 59.798 35.956 L 59.798 35.956 Q 59.337 35.956 58.934 35.927 L 58.934 35.927 L 58.934 35.927 Q 58.53 35.898 58.069 35.84 L 58.069 35.84 L 57.493 35.725 L 57.493 35.725 Q 57.378 35.091 57.263 35.005 L 57.263 35.005 L 57.263 35.005 Q 57.147 34.919 57.032 34.803 L 57.032 34.803 L 57.032 34.803 Q 56.744 34.515 56.427 34.026 L 56.427 34.026 L 56.427 34.026 Q 56.11 33.536 56.283 32.787 L 56.283 32.787 L 56.283 32.787 Q 55.995 32.268 55.937 31.75 L 55.937 31.75 L 55.937 31.75 Q 55.592 32.441 55.419 33.19 L 55.419 33.19 L 55.188 33.766 L 54.612 33.881 L 54.612 33.881 Q 54.497 33.939 54.439 34.141 L 54.439 34.141 L 54.439 34.141 Q 54.382 34.342 54.382 34.458 L 54.382 34.458 L 54.094 35.437 L 54.094 35.437 Q 53.978 35.552 53.863 35.639 L 53.863 35.639 L 53.863 35.639 Q 53.748 35.725 53.633 35.84 L 53.633 35.84 L 53.633 35.84 Q 53.518 36.359 53.345 36.878 L 53.345 36.878 L 53.345 36.878 Q 53.172 37.396 52.999 37.857 L 52.999 37.857 L 52.999 37.857 Q 52.711 38.606 52.509 39.326 L 52.509 39.326 L 52.509 39.326 Q 52.308 40.047 52.365 40.738 L 52.365 40.738 L 52.135 41.372 L 52.135 41.372 Q 51.847 41.717 51.501 41.919 L 51.501 41.919 L 51.501 41.919 Q 51.155 42.121 50.809 42.294 L 50.809 42.294 L 50.809 42.294 Q 50.694 42.409 50.493 42.495 L 50.493 42.495 L 50.493 42.495 Q 50.291 42.582 50.176 42.639 L 50.176 42.639 L 50.003 43.273 L 49.311 43.388 L 49.311 43.388 Q 48.678 43.504 48.418 43.561 L 48.418 43.561 L 48.418 43.561 Q 48.159 43.619 47.813 43.619 L 47.813 43.619 L 47.237 43.561 L 47.237 43.561 Q 46.603 43.043 46.258 42.726 L 46.258 42.726 L 46.258 42.726 Q 45.912 42.409 45.451 42.121 L 45.451 42.121 L 45.451 42.121 Q 44.933 41.429 44.875 41.084 L 44.875 41.084 L 44.875 41.084 Q 44.817 40.738 44.76 40.45 L 44.76 40.45 L 44.76 40.45 Q 44.644 40.104 44.616 39.874 L 44.616 39.874 L 44.616 39.874 Q 44.587 39.643 44.472 39.528 L 44.472 39.528 L 43.723 38.837 L 44.356 38.318 L 44.414 37.338 L 44.414 37.338 Q 45.566 34.4 46.863 31.692 L 46.863 31.692 L 46.863 31.692 Q 48.159 28.984 49.542 26.161 L 49.542 26.161 L 49.542 26.161 Q 50.003 25.239 50.435 24.317 L 50.435 24.317 L 50.435 24.317 Q 50.867 23.395 51.328 22.473 L 51.328 22.473 L 51.328 22.473 Q 51.27 22.3 51.27 22.07 L 51.27 22.07 L 51.27 22.07 Q 51.27 21.839 51.386 21.551 L 51.386 21.551 L 51.386 21.551 Q 52.019 20.572 52.423 19.794 L 52.423 19.794 L 52.423 19.794 Q 52.826 19.016 53.229 18.21 L 53.229 18.21 L 53.229 18.21 Q 53.69 17.23 54.18 16.308 L 54.18 16.308 L 54.18 16.308 Q 54.67 15.386 55.419 14.407 L 55.419 14.407 L 56.341 14.004 L 56.341 14.004 Q 56.514 13.946 56.744 13.859 L 56.744 13.859 L 56.744 13.859 Q 56.975 13.773 57.263 13.773 L 57.263 13.773 L 58.127 13.888 L 58.127 13.888 Q 59.74 13.139 60.95 11.785 L 60.95 11.785 L 60.95 11.785 Q 62.16 10.431 63.428 8.53 L 63.428 8.53 L 64.004 7.723 L 64.753 8.184 L 64.753 8.184 Q 65.041 8.357 65.559 8.501 L 65.559 8.501 L 65.559 8.501 Q 66.078 8.645 66.654 8.818 L 66.654 8.818 L 66.654 8.818 Q 67.691 9.048 68.613 9.337 L 68.613 9.337 L 68.613 9.337 Q 69.535 9.625 70.111 10.201 L 70.111 10.201 L 70.111 10.201 Q 70.457 11.123 70.515 11.584 L 70.515 11.584 L 70.515 11.584 Q 70.572 12.045 70.687 12.505 L 70.687 12.505 L 70.687 12.505 Q 70.86 13.485 71.004 14.464 L 71.004 14.464 L 71.004 14.464 Q 71.148 15.444 71.206 16.654 L 71.206 16.654 L 71.206 16.654 Q 71.494 17.633 71.696 18.584 L 71.696 18.584 L 71.696 18.584 Q 71.897 19.535 72.07 20.514 L 72.07 20.514 L 72.07 20.514 Q 72.358 21.897 72.646 23.193 L 72.646 23.193 L 72.646 23.193 Q 72.934 24.49 73.395 25.642 L 73.395 25.642 L 73.395 25.642 Q 73.856 25.642 73.972 25.7 L 73.972 25.7 L 73.972 25.7 Q 74.26 25.585 74.577 25.527 L 74.577 25.527 L 74.577 25.527 Q 74.893 25.469 75.297 25.412 L 75.297 25.412 L 75.931 25.354 L 76.161 25.93 L 76.161 25.93 Q 76.219 26.218 76.737 26.506 L 76.737 26.506 L 76.737 26.506 Q 77.486 26.564 77.832 26.823 L 77.832 26.823 L 77.832 26.823 Q 78.178 27.083 78.466 27.371 L 78.466 27.371 L 78.466 27.371 Q 78.696 27.601 78.927 27.716 L 78.927 27.716 L 79.791 28.062 L 79.33 28.926 L 79.33 28.926 Q 78.754 29.963 77.688 30.914 L 77.688 30.914 L 77.688 30.914 Q 76.622 31.865 75.297 32.499 L 75.297 32.499 L 75.297 32.499 Q 75.354 32.844 75.383 33.161 L 75.383 33.161 L 75.383 33.161 Q 75.412 33.478 75.527 33.824 L 75.527 33.824 L 75.527 33.824 Q 75.7 34.803 75.815 35.84 L 75.815 35.84 L 75.815 35.84 Q 75.931 36.878 75.815 37.972 L 75.815 37.972 Z  M 59.049 28.235 L 59.049 28.235 L 59.049 28.235 Q 60.777 28.12 62.189 27.976 L 62.189 27.976 L 62.189 27.976 Q 63.601 27.832 65.329 27.486 L 65.329 27.486 L 65.329 27.486 Q 64.926 25.757 64.465 23.885 L 64.465 23.885 L 64.465 23.885 Q 64.004 22.012 63.485 20.169 L 63.485 20.169 L 63.14 20.745 L 63.14 20.745 Q 61.987 21.955 60.921 23.453 L 60.921 23.453 L 60.921 23.453 Q 59.855 24.951 59.106 26.276 L 59.106 26.276 L 59.106 26.276 Q 58.761 26.795 58.415 27.313 L 58.415 27.313 L 58.415 27.313 Q 58.069 27.832 57.781 28.35 L 57.781 28.35 L 57.781 28.35 Q 58.127 28.293 58.444 28.293 L 58.444 28.293 L 58.444 28.293 Q 58.761 28.293 59.049 28.235 Z  M 96.039 42.063 L 94.714 42.409 L 94.714 42.409 Q 93.101 42.927 91.199 43.446 L 91.199 43.446 L 91.199 43.446 Q 89.298 43.964 87.396 43.964 L 87.396 43.964 L 87.396 43.964 Q 84.516 43.964 82.845 42.524 L 82.845 42.524 L 82.845 42.524 Q 82.557 41.89 82.326 41.66 L 82.326 41.66 L 82.326 41.66 Q 82.153 41.429 82.009 41.17 L 82.009 41.17 L 82.009 41.17 Q 81.865 40.911 81.808 40.45 L 81.808 40.45 L 81.808 40.45 Q 81.116 39.643 80.713 38.577 L 80.713 38.577 L 80.713 38.577 Q 80.309 37.511 80.165 36.388 L 80.165 36.388 L 80.165 36.388 Q 80.021 35.264 80.108 34.112 L 80.108 34.112 L 80.108 34.112 Q 80.194 32.96 80.482 31.922 L 80.482 31.922 L 80.482 31.922 Q 80.598 31.692 80.626 31.462 L 80.626 31.462 L 80.626 31.462 Q 80.655 31.231 80.713 30.943 L 80.713 30.943 L 80.713 30.943 Q 80.943 30.021 81.203 29.157 L 81.203 29.157 L 81.203 29.157 Q 81.462 28.293 81.923 27.659 L 81.923 27.659 L 81.923 27.659 Q 81.692 27.14 81.923 26.506 L 81.923 26.506 L 81.923 26.506 Q 82.153 25.873 82.441 25.354 L 82.441 25.354 L 82.441 25.354 Q 83.248 23.165 83.795 21.638 L 83.795 21.638 L 83.795 21.638 Q 84.343 20.111 84.919 18.613 L 84.919 18.613 L 84.919 18.613 Q 85.898 16.02 86.763 13.485 L 86.763 13.485 L 86.763 13.485 Q 87.627 10.95 88.318 8.011 L 88.318 8.011 L 88.318 8.011 Q 88.779 7.723 89.01 7.608 L 89.01 7.608 L 89.01 7.608 Q 89.355 7.493 89.586 7.435 L 89.586 7.435 L 89.586 7.435 Q 90.623 7.954 92.006 8.443 L 92.006 8.443 L 92.006 8.443 Q 93.389 8.933 94.31 8.933 L 94.31 8.933 L 94.31 8.933 Q 94.771 9.221 94.887 9.365 L 94.887 9.365 L 94.887 9.365 Q 95.002 9.509 95.117 9.625 L 95.117 9.625 L 95.117 9.625 Q 95.751 10.374 96.212 11.151 L 96.212 11.151 L 96.212 11.151 Q 96.673 11.929 96.5 13.197 L 96.5 13.197 L 96.5 13.197 Q 96.154 13.715 95.981 13.715 L 95.981 13.715 L 95.981 13.715 Q 95.693 14.868 95.376 15.674 L 95.376 15.674 L 95.376 15.674 Q 95.059 16.481 94.714 17.288 L 94.714 17.288 L 94.714 17.288 Q 94.31 18.152 93.965 19.016 L 93.965 19.016 L 93.965 19.016 Q 93.619 19.88 93.389 21.148 L 93.389 21.148 L 93.389 21.148 Q 93.158 21.436 93.072 21.667 L 93.072 21.667 L 93.072 21.667 Q 92.985 21.897 92.87 22.185 L 92.87 22.185 L 92.87 22.185 Q 92.755 22.473 92.611 22.79 L 92.611 22.79 L 92.611 22.79 Q 92.467 23.107 92.179 23.338 L 92.179 23.338 L 92.179 23.338 Q 92.006 24.836 91.631 25.757 L 91.631 25.757 L 91.631 25.757 Q 91.257 26.679 90.853 27.601 L 90.853 27.601 L 90.853 27.601 Q 90.162 29.272 89.615 30.943 L 89.615 30.943 L 89.615 30.943 Q 89.067 32.614 88.952 34.746 L 88.952 34.746 L 88.952 34.746 Q 89.24 34.63 89.499 34.63 L 89.499 34.63 L 89.499 34.63 Q 89.759 34.63 89.989 34.63 L 89.989 34.63 L 89.989 34.63 Q 90.508 34.63 91.199 34.803 L 91.199 34.803 L 91.199 34.803 Q 92.928 33.881 94.973 33.709 L 94.973 33.709 L 94.973 33.709 Q 97.018 33.536 99.035 33.478 L 99.035 33.478 L 99.035 33.478 Q 99.842 33.478 100.648 33.478 L 100.648 33.478 L 100.648 33.478 Q 101.455 33.478 102.146 33.363 L 102.146 33.363 L 102.146 33.363 Q 102.665 33.651 102.809 33.68 L 102.809 33.68 L 102.809 33.68 Q 102.953 33.709 103.241 33.709 L 103.241 33.709 L 103.241 33.709 Q 103.644 33.709 103.933 33.766 L 103.933 33.766 L 103.933 33.766 Q 104.624 34.4 105.258 34.688 L 105.258 34.688 L 105.258 34.688 Q 105.892 34.976 106.583 35.207 L 106.583 35.207 L 106.583 35.207 Q 107.217 35.437 107.822 35.696 L 107.822 35.696 L 107.822 35.696 Q 108.427 35.956 109.003 36.417 L 109.003 36.417 L 109.406 38.894 L 109.406 38.894 Q 109.809 39.413 109.752 39.586 L 109.752 39.586 L 109.752 39.586 Q 109.752 40.047 109.521 40.277 L 109.521 40.277 L 109.637 40.911 L 109.637 40.911 Q 108.772 41.084 108.455 41.314 L 108.455 41.314 L 108.455 41.314 Q 108.139 41.545 107.851 41.833 L 107.851 41.833 L 107.851 41.833 Q 107.39 41.89 107.188 41.89 L 107.188 41.89 L 107.188 41.89 Q 106.986 41.89 106.813 41.89 L 106.813 41.89 L 106.813 41.89 Q 106.007 41.89 104.854 42.178 L 104.854 42.178 L 104.854 42.178 Q 103.299 41.66 101.628 41.66 L 101.628 41.66 L 101.628 41.66 Q 100.994 41.66 100.303 41.717 L 100.303 41.717 L 100.303 41.717 Q 99.611 41.775 98.92 41.833 L 98.92 41.833 L 98.92 41.833 Q 98.228 41.948 97.508 42.005 L 97.508 42.005 L 97.508 42.005 Q 96.788 42.063 96.039 42.063 L 96.039 42.063 Z  M 145.705 40.968 L 145.705 40.968 L 145.705 40.968 Q 142.939 41.084 140.836 40.853 L 140.836 40.853 L 140.836 40.853 Q 138.733 40.623 136.717 39.758 L 136.717 39.758 L 136.717 39.758 Q 136.601 39.701 136.486 39.47 L 136.486 39.47 L 136.486 39.47 Q 136.371 39.24 136.256 39.125 L 136.256 39.125 L 136.256 39.125 Q 135.91 38.952 135.42 38.981 L 135.42 38.981 L 135.42 38.981 Q 134.931 39.009 134.585 38.894 L 134.585 38.894 L 134.585 38.894 Q 134.124 38.664 133.144 38.001 L 133.144 38.001 L 133.144 38.001 Q 132.165 37.338 131.358 36.762 L 131.358 36.762 L 131.358 36.762 Q 130.321 35.956 129.399 35.149 L 129.399 35.149 L 129.399 35.149 Q 128.477 34.342 127.786 33.421 L 127.786 33.421 L 127.786 33.421 Q 127.613 33.19 127.325 33.161 L 127.325 33.161 L 127.325 33.161 Q 127.037 33.132 126.807 33.017 L 126.807 33.017 L 126.807 33.017 Q 125.136 34.054 123.983 35.61 L 123.983 35.61 L 123.983 35.61 Q 122.831 37.166 121.794 38.779 L 121.794 38.779 L 121.794 38.779 Q 120.757 40.392 119.604 41.833 L 119.604 41.833 L 119.604 41.833 Q 118.452 43.273 116.666 44.022 L 116.666 44.022 L 116.666 44.022 Q 116.147 44.022 115.744 43.849 L 115.744 43.849 L 115.744 43.849 Q 115.341 43.676 114.995 43.417 L 114.995 43.417 L 114.995 43.417 Q 114.649 43.158 114.304 42.927 L 114.304 42.927 L 114.304 42.927 Q 113.958 42.697 113.555 42.582 L 113.555 42.582 L 113.555 42.582 Q 113.555 41.89 113.295 41.314 L 113.295 41.314 L 113.295 41.314 Q 113.036 40.738 112.777 40.219 L 112.777 40.219 L 112.777 40.219 Q 112.518 39.701 112.402 39.211 L 112.402 39.211 L 112.402 39.211 Q 112.287 38.721 112.633 38.26 L 112.633 38.26 L 112.633 38.26 Q 112.287 37.915 111.596 37.511 L 111.596 37.511 L 111.596 37.511 Q 111.941 37.166 111.913 36.878 L 111.913 36.878 L 111.913 36.878 Q 111.884 36.589 111.768 36.301 L 111.768 36.301 L 111.768 36.301 Q 111.653 36.013 111.567 35.668 L 111.567 35.668 L 111.567 35.668 Q 111.48 35.322 111.711 34.976 L 111.711 34.976 L 111.711 34.976 Q 111.999 34.976 112.402 34.861 L 112.402 34.861 L 112.402 34.861 Q 112.057 34.4 112.085 34.314 L 112.085 34.314 L 112.085 34.314 Q 112.114 34.227 111.941 34.054 L 111.941 34.054 L 111.941 34.054 Q 111.826 33.709 112.057 33.622 L 112.057 33.622 L 112.057 33.622 Q 112.287 33.536 112.518 33.421 L 112.518 33.421 L 112.518 33.421 Q 112.748 30.597 113.497 28.177 L 113.497 28.177 L 113.497 28.177 Q 114.246 25.757 115.168 23.51 L 115.168 23.51 L 115.168 23.51 Q 116.09 21.263 116.983 18.959 L 116.983 18.959 L 116.983 18.959 Q 117.876 16.654 118.452 14.004 L 118.452 14.004 L 118.452 14.004 Q 119.086 13.37 119.46 12.505 L 119.46 12.505 L 119.46 12.505 Q 119.835 11.641 120.267 10.777 L 120.267 10.777 L 120.267 10.777 Q 120.699 9.913 121.247 9.077 L 121.247 9.077 L 121.247 9.077 Q 121.794 8.242 122.773 7.723 L 122.773 7.723 L 122.773 7.723 Q 123.58 7.781 124.214 8.155 L 124.214 8.155 L 124.214 8.155 Q 124.848 8.53 125.769 8.472 L 125.769 8.472 L 125.769 8.472 Q 125.942 8.76 126.086 9.048 L 126.086 9.048 L 126.086 9.048 Q 126.23 9.337 126.461 9.625 L 126.461 9.625 L 127.325 9.452 L 127.325 9.452 Q 127.959 9.97 128.449 10.748 L 128.449 10.748 L 128.449 10.748 Q 128.938 11.526 129.111 12.39 L 129.111 12.39 L 129.111 12.39 Q 129.284 13.255 129.054 14.032 L 129.054 14.032 L 129.054 14.032 Q 128.823 14.81 127.959 15.271 L 127.959 15.271 L 127.959 15.271 Q 128.017 15.559 127.988 15.703 L 127.988 15.703 L 127.988 15.703 Q 127.959 15.847 127.901 15.963 L 127.901 15.963 L 127.901 15.963 Q 127.844 16.078 127.844 16.193 L 127.844 16.193 L 127.844 16.193 Q 127.844 16.308 128.017 16.539 L 128.017 16.539 L 128.017 16.539 Q 126.864 17.403 126.288 18.959 L 126.288 18.959 L 126.288 18.959 Q 125.712 20.514 125.654 21.724 L 125.654 21.724 L 125.654 21.724 Q 126.346 21.033 127.181 20.37 L 127.181 20.37 L 127.181 20.37 Q 128.017 19.708 128.91 19.074 L 128.91 19.074 L 128.91 19.074 Q 129.803 18.44 130.638 17.864 L 130.638 17.864 L 130.638 17.864 Q 131.474 17.288 132.165 16.712 L 132.165 16.712 L 132.165 16.712 Q 134.066 14.983 135.824 13.917 L 135.824 13.917 L 135.824 13.917 Q 137.581 12.851 139.54 11.526 L 139.54 11.526 L 139.54 11.526 Q 140.001 11.411 140.26 11.497 L 140.26 11.497 L 140.26 11.497 Q 140.519 11.584 140.808 11.699 L 140.808 11.699 L 140.808 11.699 Q 140.808 11.353 140.606 11.296 L 140.606 11.296 L 140.606 11.296 Q 140.404 11.238 140.462 10.835 L 140.462 10.835 L 140.462 10.835 Q 141.326 10.604 141.96 10.287 L 141.96 10.287 L 141.96 10.287 Q 142.594 9.97 143.343 9.682 L 143.343 9.682 L 143.343 9.682 Q 143.861 10.201 144.322 10.748 L 144.322 10.748 L 144.322 10.748 Q 144.783 11.296 145.59 11.411 L 145.59 11.411 L 145.59 11.411 Q 145.878 12.045 146.281 12.361 L 146.281 12.361 L 146.281 12.361 Q 146.684 12.678 147.088 12.966 L 147.088 12.966 L 147.088 12.966 Q 147.491 13.255 147.808 13.658 L 147.808 13.658 L 147.808 13.658 Q 148.125 14.061 148.183 14.925 L 148.183 14.925 L 148.183 14.925 Q 147.952 15.329 147.693 15.79 L 147.693 15.79 L 147.693 15.79 Q 147.434 16.251 147.203 16.884 L 147.203 16.884 L 147.203 16.884 Q 146.051 17.922 144.87 18.728 L 144.87 18.728 L 144.87 18.728 Q 143.688 19.535 142.478 20.284 L 142.478 20.284 L 142.478 20.284 Q 141.268 21.033 140.001 21.782 L 140.001 21.782 L 140.001 21.782 Q 138.733 22.531 137.408 23.568 L 137.408 23.568 L 137.408 23.568 Q 137.12 23.971 136.688 24.288 L 136.688 24.288 L 136.688 24.288 Q 136.256 24.605 135.795 24.922 L 135.795 24.922 L 135.795 24.922 Q 135.334 25.239 134.931 25.585 L 134.931 25.585 L 134.931 25.585 Q 134.527 25.93 134.297 26.391 L 134.297 26.391 L 134.297 26.391 Q 134.124 26.449 133.951 26.449 L 133.951 26.449 L 133.951 26.449 Q 133.778 26.449 133.605 26.506 L 133.605 26.506 L 133.605 26.506 Q 133.433 26.91 133.058 27.14 L 133.058 27.14 L 133.058 27.14 Q 132.684 27.371 132.568 27.774 L 132.568 27.774 L 132.568 27.774 Q 133.433 29.618 134.815 30.597 L 134.815 30.597 L 134.815 30.597 Q 136.198 31.577 137.927 32.009 L 137.927 32.009 L 137.927 32.009 Q 139.655 32.441 141.672 32.47 L 141.672 32.47 L 141.672 32.47 Q 143.688 32.499 145.878 32.499 L 145.878 32.499 L 145.878 32.499 Q 146.108 32.441 146.08 32.239 L 146.08 32.239 L 146.08 32.239 Q 146.051 32.038 146.339 32.095 L 146.339 32.095 L 146.339 32.095 Q 147.722 32.556 148.471 33.392 L 148.471 33.392 L 148.471 33.392 Q 149.22 34.227 150.257 35.034 L 150.257 35.034 L 150.257 35.034 Q 150.142 37.223 148.932 38.664 L 148.932 38.664 L 148.932 38.664 Q 147.722 40.104 145.705 40.968 Z  M 149.796 17.057 L 149.796 17.057 L 149.796 17.057 Q 149.969 16.193 150.026 15.646 L 150.026 15.646 L 150.026 15.646 Q 150.084 15.098 149.623 14.464 L 149.623 14.464 L 149.623 14.464 Q 149.853 13.543 149.997 13.024 L 149.997 13.024 L 149.997 13.024 Q 150.142 12.505 150.026 11.584 L 150.026 11.584 L 150.026 11.584 Q 150.545 10.086 151.611 9.048 L 151.611 9.048 L 151.611 9.048 Q 152.677 8.011 153.944 7.291 L 153.944 7.291 L 153.944 7.291 Q 155.212 6.571 156.595 6.081 L 156.595 6.081 L 156.595 6.081 Q 157.977 5.591 159.187 5.246 L 159.187 5.246 L 159.187 5.246 Q 159.187 5.015 158.957 5.015 L 158.957 5.015 L 158.957 5.015 Q 158.726 5.015 158.842 4.727 L 158.842 4.727 L 158.842 4.727 Q 161.953 4.151 165.093 3.056 L 165.093 3.056 L 165.093 3.056 Q 168.233 1.962 171.518 1.097 L 171.518 1.097 L 171.518 1.097 Q 174.802 0.233 178.259 0.031 L 178.259 0.031 L 178.259 0.031 Q 181.716 -0.17 185.518 0.924 L 185.518 0.924 L 185.518 0.924 Q 185.749 1.616 186.152 2.25 L 186.152 2.25 L 186.152 2.25 Q 186.556 2.883 186.988 3.488 L 186.988 3.488 L 186.988 3.488 Q 187.42 4.093 187.766 4.67 L 187.766 4.67 L 187.766 4.67 Q 188.111 5.246 188.169 5.88 L 188.169 5.88 L 188.169 5.88 Q 188.86 6.513 189.292 7.234 L 189.292 7.234 L 189.292 7.234 Q 189.725 7.954 189.436 9.164 L 189.436 9.164 L 189.436 9.164 Q 188.803 9.625 188.111 10.086 L 188.111 10.086 L 188.111 10.086 Q 187.42 10.547 186.671 10.95 L 186.671 10.95 L 186.671 10.95 Q 184.078 10.316 181.485 10.489 L 181.485 10.489 L 181.485 10.489 Q 178.893 10.662 176.818 10.892 L 176.818 10.892 L 176.818 10.892 Q 176.184 10.201 175.32 10.23 L 175.32 10.23 L 175.32 10.23 Q 174.456 10.258 173.505 10.518 L 173.505 10.518 L 173.505 10.518 Q 172.555 10.777 171.633 11.036 L 171.633 11.036 L 171.633 11.036 Q 170.711 11.296 169.904 11.18 L 169.904 11.18 L 169.904 11.18 Q 169.27 11.756 168.233 11.958 L 168.233 11.958 L 168.233 11.958 Q 167.196 12.16 166.044 12.275 L 166.044 12.275 L 166.044 12.275 Q 165.986 12.563 166.159 12.678 L 166.159 12.678 L 166.159 12.678 Q 166.332 12.794 166.217 13.139 L 166.217 13.139 L 166.217 13.139 Q 166.62 13.658 167.311 13.859 L 167.311 13.859 L 167.311 13.859 Q 168.003 14.061 168.723 14.234 L 168.723 14.234 L 168.723 14.234 Q 169.443 14.407 170.019 14.724 L 170.019 14.724 L 170.019 14.724 Q 170.596 15.041 170.768 15.732 L 170.768 15.732 L 170.768 15.732 Q 171.806 15.79 172.555 16.279 L 172.555 16.279 L 172.555 16.279 Q 173.304 16.769 173.822 17.461 L 173.822 17.461 L 173.822 17.461 Q 174.341 18.152 174.571 18.93 L 174.571 18.93 L 174.571 18.93 Q 174.802 19.708 174.744 20.341 L 174.744 20.341 L 174.744 20.341 Q 174.975 20.918 175.234 20.802 L 175.234 20.802 L 175.234 20.802 Q 175.493 20.687 175.839 21.09 L 175.839 21.09 L 175.839 21.09 Q 176.069 21.955 176.905 22.905 L 176.905 22.905 L 176.905 22.905 Q 177.74 23.856 178.201 24.951 L 178.201 24.951 L 178.201 24.951 Q 178.316 26.679 178.403 28.062 L 178.403 28.062 L 178.403 28.062 Q 178.489 29.445 177.913 30.77 L 177.913 30.77 L 177.913 30.77 Q 176.934 33.305 175.09 35.322 L 175.09 35.322 L 175.09 35.322 Q 173.246 37.338 170.913 38.865 L 170.913 38.865 L 170.913 38.865 Q 168.579 40.392 165.986 41.516 L 165.986 41.516 L 165.986 41.516 Q 163.393 42.639 160.858 43.388 L 160.858 43.388 L 160.858 43.388 Q 160.628 43.331 160.311 43.388 L 160.311 43.388 L 160.311 43.388 Q 159.994 43.446 160.167 43.043 L 160.167 43.043 L 160.167 43.043 Q 159.648 43.504 158.986 43.619 L 158.986 43.619 L 158.986 43.619 Q 158.323 43.734 157.545 43.705 L 157.545 43.705 L 157.545 43.705 Q 156.768 43.676 155.99 43.619 L 155.99 43.619 L 155.99 43.619 Q 155.212 43.561 154.463 43.676 L 154.463 43.676 L 154.463 43.676 Q 154.002 43.215 153.627 42.755 L 153.627 42.755 L 153.627 42.755 Q 153.253 42.294 153.022 41.66 L 153.022 41.66 L 153.022 41.66 Q 152.734 41.602 152.763 41.285 L 152.763 41.285 L 152.763 41.285 Q 152.792 40.968 152.504 40.968 L 152.504 40.968 L 152.504 40.968 Q 152.504 40.738 152.561 40.623 L 152.561 40.623 L 152.561 40.623 Q 152.619 40.507 152.677 40.392 L 152.677 40.392 L 152.677 40.392 Q 152.907 40.219 152.878 40.133 L 152.878 40.133 L 152.878 40.133 Q 152.85 40.047 152.705 39.96 L 152.705 39.96 L 152.705 39.96 Q 152.561 39.874 152.417 39.758 L 152.417 39.758 L 152.417 39.758 Q 152.273 39.643 152.331 39.47 L 152.331 39.47 L 152.331 39.47 Q 152.619 38.952 152.533 38.232 L 152.533 38.232 L 152.533 38.232 Q 152.446 37.511 152.389 36.762 L 152.389 36.762 L 152.389 36.762 Q 152.331 36.013 152.504 35.351 L 152.504 35.351 L 152.504 35.351 Q 152.677 34.688 153.483 34.227 L 153.483 34.227 L 153.483 34.227 Q 155.846 34.458 157.949 33.997 L 157.949 33.997 L 157.949 33.997 Q 160.052 33.536 161.924 32.729 L 161.924 32.729 L 161.924 32.729 Q 163.797 31.922 165.497 30.972 L 165.497 30.972 L 165.497 30.972 Q 167.196 30.021 168.809 29.214 L 168.809 29.214 L 168.809 29.214 Q 168.982 28.638 169.357 28.235 L 169.357 28.235 L 169.357 28.235 Q 169.731 27.832 170.135 27.457 L 170.135 27.457 L 170.135 27.457 Q 170.538 27.083 170.884 26.651 L 170.884 26.651 L 170.884 26.651 Q 171.229 26.218 171.402 25.585 L 171.402 25.585 L 171.402 25.585 Q 171.46 25.354 171.402 25.239 L 171.402 25.239 L 171.402 25.239 Q 171.345 25.124 171.229 25.037 L 171.229 25.037 L 171.229 25.037 Q 171.114 24.951 170.999 24.836 L 170.999 24.836 L 170.999 24.836 Q 170.884 24.72 170.884 24.49 L 170.884 24.49 L 170.884 24.49 Q 170.711 24.432 170.567 24.375 L 170.567 24.375 L 170.567 24.375 Q 170.423 24.317 170.308 24.317 L 170.308 24.317 L 170.308 24.317 Q 168.809 23.568 167.139 23.049 L 167.139 23.049 L 167.139 23.049 Q 165.468 22.531 164.315 21.897 L 164.315 21.897 L 164.315 21.897 Q 163.624 22.358 162.933 22.128 L 162.933 22.128 L 162.933 22.128 Q 162.241 21.897 161.262 21.667 L 161.262 21.667 L 161.262 21.667 Q 158.842 21.551 156.681 21.206 L 156.681 21.206 L 156.681 21.206 Q 154.52 20.86 152.504 19.996 L 152.504 19.996 L 152.504 19.996 Q 152.389 19.65 152.216 19.391 L 152.216 19.391 L 152.216 19.391 Q 152.043 19.131 151.409 19.247 L 151.409 19.247 L 151.409 19.247 Q 151.006 18.671 150.574 18.181 L 150.574 18.181 L 150.574 18.181 Q 150.142 17.691 149.796 17.057 Z  M 204.186 7.32 L 204.186 7.32 L 204.186 7.32 Q 206.606 7.608 208.508 8.299 L 208.508 8.299 L 208.508 8.299 Q 210.409 8.991 211.734 10.143 L 211.734 10.143 L 211.734 10.143 Q 212.656 11.584 213.492 13.255 L 213.492 13.255 L 213.492 13.255 Q 214.327 14.925 214.759 16.74 L 214.759 16.74 L 214.759 16.74 Q 215.191 18.555 215.163 20.457 L 215.163 20.457 L 215.163 20.457 Q 215.134 22.358 214.327 24.317 L 214.327 24.317 L 214.327 24.317 Q 212.656 26.391 210.265 27.688 L 210.265 27.688 L 210.265 27.688 Q 207.874 28.984 205.108 29.791 L 205.108 29.791 L 205.108 29.791 Q 202.343 30.597 199.375 31.173 L 199.375 31.173 L 199.375 31.173 Q 196.408 31.75 193.585 32.326 L 193.585 32.326 L 193.585 32.326 Q 193.643 33.651 193.614 35.12 L 193.614 35.12 L 193.614 35.12 Q 193.585 36.589 193.326 38.059 L 193.326 38.059 L 193.326 38.059 Q 193.066 39.528 192.548 40.911 L 192.548 40.911 L 192.548 40.911 Q 192.029 42.294 191.165 43.446 L 191.165 43.446 L 191.165 43.446 Q 190.185 43.446 189.148 43.705 L 189.148 43.705 L 189.148 43.705 Q 188.111 43.964 187.305 44.137 L 187.305 44.137 L 187.305 44.137 Q 186.901 43.907 186.584 43.705 L 186.584 43.705 L 186.584 43.705 Q 186.268 43.504 185.691 43.446 L 185.691 43.446 L 185.691 43.446 Q 185.807 42.87 185.403 42.265 L 185.403 42.265 L 185.403 42.265 Q 185 41.66 184.597 41.026 L 184.597 41.026 L 184.597 41.026 Q 184.193 40.392 184.049 39.816 L 184.049 39.816 L 184.049 39.816 Q 183.905 39.24 184.597 38.721 L 184.597 38.721 L 184.597 38.721 Q 184.193 38.318 184.193 37.684 L 184.193 37.684 L 184.193 37.684 Q 184.597 36.993 184.913 35.783 L 184.913 35.783 L 184.913 35.783 Q 185.23 34.573 185.432 33.392 L 185.432 33.392 L 185.432 33.392 Q 185.634 32.211 185.518 31.231 L 185.518 31.231 L 185.518 31.231 Q 185.403 30.252 184.366 29.791 L 184.366 29.791 L 184.366 29.791 Q 184.424 29.675 184.597 29.675 L 184.597 29.675 L 184.597 29.675 Q 184.769 29.675 184.942 29.618 L 184.942 29.618 L 184.942 29.618 Q 184.481 29.272 184.395 28.638 L 184.395 28.638 L 184.395 28.638 Q 184.309 28.005 183.963 27.544 L 183.963 27.544 L 183.963 27.544 Q 184.078 27.255 184.136 27.025 L 184.136 27.025 L 184.136 27.025 Q 184.193 26.795 184.539 26.852 L 184.539 26.852 L 184.539 26.852 Q 184.366 25.815 184.568 24.893 L 184.568 24.893 L 184.568 24.893 Q 184.769 23.971 185.173 23.136 L 185.173 23.136 L 185.173 23.136 Q 185.576 22.3 186.152 21.494 L 186.152 21.494 L 186.152 21.494 Q 186.728 20.687 187.247 19.88 L 187.247 19.88 L 187.247 19.88 Q 187.65 19.823 187.737 19.996 L 187.737 19.996 L 187.737 19.996 Q 187.823 20.169 188.111 19.938 L 188.111 19.938 L 188.111 19.938 Q 188.86 19.362 189.148 18.728 L 189.148 18.728 L 189.148 18.728 Q 189.436 18.094 189.436 17.288 L 189.436 17.288 L 189.436 17.288 Q 189.84 16.078 190.416 14.839 L 190.416 14.839 L 190.416 14.839 Q 190.992 13.6 191.684 12.563 L 191.684 12.563 L 191.684 12.563 Q 192.375 11.526 193.21 10.719 L 193.21 10.719 L 193.21 10.719 Q 194.046 9.913 194.968 9.509 L 194.968 9.509 L 194.968 9.509 Q 195.659 8.933 196.696 8.443 L 196.696 8.443 L 196.696 8.443 Q 197.733 7.954 198.943 7.694 L 198.943 7.694 L 198.943 7.694 Q 200.153 7.435 201.392 7.406 L 201.392 7.406 L 201.392 7.406 Q 202.631 7.378 203.668 7.666 L 203.668 7.666 L 203.668 7.666 Q 203.956 7.781 203.985 7.55 L 203.985 7.55 L 203.985 7.55 Q 204.014 7.32 204.186 7.32 Z  M 201.824 21.09 L 201.824 21.09 L 201.824 21.09 Q 203.265 20.457 204.907 20.082 L 204.907 20.082 L 204.907 20.082 Q 206.549 19.708 207.643 18.671 L 207.643 18.671 L 207.643 18.671 Q 206.952 18.037 205.627 17.547 L 205.627 17.547 L 205.627 17.547 Q 204.302 17.057 202.746 16.942 L 202.746 16.942 L 202.746 16.942 Q 201.19 16.827 199.606 17.201 L 199.606 17.201 L 199.606 17.201 Q 198.021 17.576 196.869 18.613 L 196.869 18.613 L 196.869 18.613 Q 196.523 19.65 196.293 20.255 L 196.293 20.255 L 196.293 20.255 Q 196.062 20.86 195.659 21.724 L 195.659 21.724 L 195.659 21.724 Q 195.774 22.012 196.034 22.156 L 196.034 22.156 L 196.034 22.156 Q 196.293 22.3 196.408 22.588 L 196.408 22.588 L 196.408 22.588 Q 197.733 21.897 199.087 21.811 L 199.087 21.811 L 199.087 21.811 Q 200.441 21.724 201.824 21.09 Z  M 242.848 37.972 L 242.732 38.203 L 242.732 38.203 Q 242.387 39.182 241.724 40.191 L 241.724 40.191 L 241.724 40.191 Q 241.061 41.199 240.168 41.977 L 240.168 41.977 L 240.168 41.977 Q 239.275 42.755 238.181 43.273 L 238.181 43.273 L 238.181 43.273 Q 237.086 43.792 235.876 43.849 L 235.876 43.849 L 235.876 43.849 Q 235.127 43.676 234.868 43.475 L 234.868 43.475 L 234.868 43.475 Q 234.608 43.273 234.32 43.1 L 234.32 43.1 L 234.32 43.1 Q 234.147 42.985 234.003 42.899 L 234.003 42.899 L 234.003 42.899 Q 233.859 42.812 233.744 42.755 L 233.744 42.755 L 233.053 42.466 L 233.283 41.717 L 233.283 41.717 Q 233.398 41.256 233.226 40.997 L 233.226 40.997 L 233.226 40.997 Q 233.053 40.738 232.534 40.277 L 232.534 40.277 L 232.534 40.277 Q 232.361 40.104 232.188 39.931 L 232.188 39.931 L 232.188 39.931 Q 232.016 39.758 231.9 39.586 L 231.9 39.586 L 230.921 38.491 L 232.476 38.088 L 232.476 38.088 Q 233.917 37.684 234.407 37.05 L 234.407 37.05 L 234.407 37.05 Q 234.896 36.417 234.781 34.919 L 234.781 34.919 L 234.781 34.919 Q 233.629 34.688 232.851 34.861 L 232.851 34.861 L 232.851 34.861 Q 232.073 35.034 231.267 35.264 L 231.267 35.264 L 231.267 35.264 Q 230.229 35.552 229.163 35.754 L 229.163 35.754 L 229.163 35.754 Q 228.098 35.956 226.83 35.956 L 226.83 35.956 L 226.83 35.956 Q 226.369 35.956 225.966 35.927 L 225.966 35.927 L 225.966 35.927 Q 225.562 35.898 225.101 35.84 L 225.101 35.84 L 224.525 35.725 L 224.525 35.725 Q 224.41 35.091 224.295 35.005 L 224.295 35.005 L 224.295 35.005 Q 224.18 34.919 224.064 34.803 L 224.064 34.803 L 224.064 34.803 Q 223.776 34.515 223.459 34.026 L 223.459 34.026 L 223.459 34.026 Q 223.143 33.536 223.315 32.787 L 223.315 32.787 L 223.315 32.787 Q 223.027 32.268 222.97 31.75 L 222.97 31.75 L 222.97 31.75 Q 222.624 32.441 222.451 33.19 L 222.451 33.19 L 222.221 33.766 L 221.644 33.881 L 221.644 33.881 Q 221.529 33.939 221.472 34.141 L 221.472 34.141 L 221.472 34.141 Q 221.414 34.342 221.414 34.458 L 221.414 34.458 L 221.126 35.437 L 221.126 35.437 Q 221.011 35.552 220.895 35.639 L 220.895 35.639 L 220.895 35.639 Q 220.78 35.725 220.665 35.84 L 220.665 35.84 L 220.665 35.84 Q 220.55 36.359 220.377 36.878 L 220.377 36.878 L 220.377 36.878 Q 220.204 37.396 220.031 37.857 L 220.031 37.857 L 220.031 37.857 Q 219.743 38.606 219.541 39.326 L 219.541 39.326 L 219.541 39.326 Q 219.34 40.047 219.397 40.738 L 219.397 40.738 L 219.167 41.372 L 219.167 41.372 Q 218.879 41.717 218.533 41.919 L 218.533 41.919 L 218.533 41.919 Q 218.187 42.121 217.842 42.294 L 217.842 42.294 L 217.842 42.294 Q 217.726 42.409 217.525 42.495 L 217.525 42.495 L 217.525 42.495 Q 217.323 42.582 217.208 42.639 L 217.208 42.639 L 217.035 43.273 L 216.344 43.388 L 216.344 43.388 Q 215.71 43.504 215.451 43.561 L 215.451 43.561 L 215.451 43.561 Q 215.191 43.619 214.846 43.619 L 214.846 43.619 L 214.269 43.561 L 214.269 43.561 Q 213.636 43.043 213.29 42.726 L 213.29 42.726 L 213.29 42.726 Q 212.944 42.409 212.483 42.121 L 212.483 42.121 L 212.483 42.121 Q 211.965 41.429 211.907 41.084 L 211.907 41.084 L 211.907 41.084 Q 211.85 40.738 211.792 40.45 L 211.792 40.45 L 211.792 40.45 Q 211.677 40.104 211.648 39.874 L 211.648 39.874 L 211.648 39.874 Q 211.619 39.643 211.504 39.528 L 211.504 39.528 L 210.755 38.837 L 211.389 38.318 L 211.446 37.338 L 211.446 37.338 Q 212.599 34.4 213.895 31.692 L 213.895 31.692 L 213.895 31.692 Q 215.191 28.984 216.574 26.161 L 216.574 26.161 L 216.574 26.161 Q 217.035 25.239 217.467 24.317 L 217.467 24.317 L 217.467 24.317 Q 217.899 23.395 218.36 22.473 L 218.36 22.473 L 218.36 22.473 Q 218.303 22.3 218.303 22.07 L 218.303 22.07 L 218.303 22.07 Q 218.303 21.839 218.418 21.551 L 218.418 21.551 L 218.418 21.551 Q 219.052 20.572 219.455 19.794 L 219.455 19.794 L 219.455 19.794 Q 219.858 19.016 220.262 18.21 L 220.262 18.21 L 220.262 18.21 Q 220.723 17.23 221.212 16.308 L 221.212 16.308 L 221.212 16.308 Q 221.702 15.386 222.451 14.407 L 222.451 14.407 L 223.373 14.004 L 223.373 14.004 Q 223.546 13.946 223.776 13.859 L 223.776 13.859 L 223.776 13.859 Q 224.007 13.773 224.295 13.773 L 224.295 13.773 L 225.159 13.888 L 225.159 13.888 Q 226.772 13.139 227.982 11.785 L 227.982 11.785 L 227.982 11.785 Q 229.192 10.431 230.46 8.53 L 230.46 8.53 L 231.036 7.723 L 231.785 8.184 L 231.785 8.184 Q 232.073 8.357 232.592 8.501 L 232.592 8.501 L 232.592 8.501 Q 233.11 8.645 233.686 8.818 L 233.686 8.818 L 233.686 8.818 Q 234.724 9.048 235.645 9.337 L 235.645 9.337 L 235.645 9.337 Q 236.567 9.625 237.143 10.201 L 237.143 10.201 L 237.143 10.201 Q 237.489 11.123 237.547 11.584 L 237.547 11.584 L 237.547 11.584 Q 237.604 12.045 237.72 12.505 L 237.72 12.505 L 237.72 12.505 Q 237.893 13.485 238.037 14.464 L 238.037 14.464 L 238.037 14.464 Q 238.181 15.444 238.238 16.654 L 238.238 16.654 L 238.238 16.654 Q 238.526 17.633 238.728 18.584 L 238.728 18.584 L 238.728 18.584 Q 238.93 19.535 239.102 20.514 L 239.102 20.514 L 239.102 20.514 Q 239.391 21.897 239.679 23.193 L 239.679 23.193 L 239.679 23.193 Q 239.967 24.49 240.428 25.642 L 240.428 25.642 L 240.428 25.642 Q 240.889 25.642 241.004 25.7 L 241.004 25.7 L 241.004 25.7 Q 241.292 25.585 241.609 25.527 L 241.609 25.527 L 241.609 25.527 Q 241.926 25.469 242.329 25.412 L 242.329 25.412 L 242.963 25.354 L 243.193 25.93 L 243.193 25.93 Q 243.251 26.218 243.769 26.506 L 243.769 26.506 L 243.769 26.506 Q 244.518 26.564 244.864 26.823 L 244.864 26.823 L 244.864 26.823 Q 245.21 27.083 245.498 27.371 L 245.498 27.371 L 245.498 27.371 Q 245.728 27.601 245.959 27.716 L 245.959 27.716 L 246.823 28.062 L 246.362 28.926 L 246.362 28.926 Q 245.786 29.963 244.72 30.914 L 244.72 30.914 L 244.72 30.914 Q 243.654 31.865 242.329 32.499 L 242.329 32.499 L 242.329 32.499 Q 242.387 32.844 242.415 33.161 L 242.415 33.161 L 242.415 33.161 Q 242.444 33.478 242.559 33.824 L 242.559 33.824 L 242.559 33.824 Q 242.732 34.803 242.848 35.84 L 242.848 35.84 L 242.848 35.84 Q 242.963 36.878 242.848 37.972 L 242.848 37.972 Z  M 226.081 28.235 L 226.081 28.235 L 226.081 28.235 Q 227.809 28.12 229.221 27.976 L 229.221 27.976 L 229.221 27.976 Q 230.633 27.832 232.361 27.486 L 232.361 27.486 L 232.361 27.486 Q 231.958 25.757 231.497 23.885 L 231.497 23.885 L 231.497 23.885 Q 231.036 22.012 230.518 20.169 L 230.518 20.169 L 230.172 20.745 L 230.172 20.745 Q 229.019 21.955 227.954 23.453 L 227.954 23.453 L 227.954 23.453 Q 226.888 24.951 226.139 26.276 L 226.139 26.276 L 226.139 26.276 Q 225.793 26.795 225.447 27.313 L 225.447 27.313 L 225.447 27.313 Q 225.101 27.832 224.813 28.35 L 224.813 28.35 L 224.813 28.35 Q 225.159 28.293 225.476 28.293 L 225.476 28.293 L 225.476 28.293 Q 225.793 28.293 226.081 28.235 Z  M 270.504 43.158 L 270.504 43.158 L 270.504 43.158 Q 269.582 43.215 268.228 43.1 L 268.228 43.1 L 268.228 43.1 Q 266.874 42.985 265.722 43.504 L 265.722 43.504 L 265.722 43.504 Q 262.668 43.388 259.499 42.755 L 259.499 42.755 L 259.499 42.755 Q 256.33 42.121 253.68 41.199 L 253.68 41.199 L 253.68 41.199 Q 253.103 40.565 252.527 40.018 L 252.527 40.018 L 252.527 40.018 Q 251.951 39.47 250.972 39.24 L 250.972 39.24 L 250.972 39.24 Q 249.589 38.145 248.725 36.561 L 248.725 36.561 L 248.725 36.561 Q 247.86 34.976 247.342 33.19 L 247.342 33.19 L 247.342 33.19 Q 246.823 31.404 246.65 29.531 L 246.65 29.531 L 246.65 29.531 Q 246.477 27.659 246.535 25.93 L 246.535 25.93 L 246.535 25.93 Q 247.399 23.338 248.984 21.465 L 248.984 21.465 L 248.984 21.465 Q 250.568 19.592 252.239 17.749 L 252.239 17.749 L 252.239 17.749 Q 252.988 17.403 253.363 17.028 L 253.363 17.028 L 253.363 17.028 Q 253.737 16.654 254.169 16.337 L 254.169 16.337 L 254.169 16.337 Q 254.601 16.02 255.034 15.703 L 255.034 15.703 L 255.034 15.703 Q 255.466 15.386 255.811 14.925 L 255.811 14.925 L 255.811 14.925 Q 257.021 14.637 257.914 14.09 L 257.914 14.09 L 257.914 14.09 Q 258.808 13.543 259.672 12.938 L 259.672 12.938 L 259.672 12.938 Q 260.536 12.333 261.458 11.814 L 261.458 11.814 L 261.458 11.814 Q 262.38 11.296 263.59 11.007 L 263.59 11.007 L 263.59 11.007 Q 264.051 10.489 264.684 10.172 L 264.684 10.172 L 264.684 10.172 Q 265.318 9.855 265.981 9.538 L 265.981 9.538 L 265.981 9.538 Q 266.643 9.221 267.248 8.876 L 267.248 8.876 L 267.248 8.876 Q 267.853 8.53 268.199 7.954 L 268.199 7.954 L 268.199 7.954 Q 268.487 8.415 269.006 8.271 L 269.006 8.271 L 269.006 8.271 Q 269.524 8.127 269.985 7.954 L 269.985 7.954 L 269.985 7.954 Q 270.273 7.896 270.475 8.069 L 270.475 8.069 L 270.475 8.069 Q 270.677 8.242 270.85 8.415 L 270.85 8.415 L 270.85 8.415 Q 271.022 8.588 271.166 8.616 L 271.166 8.616 L 271.166 8.616 Q 271.31 8.645 271.426 8.357 L 271.426 8.357 L 271.426 8.357 Q 271.714 8.357 271.599 8.645 L 271.599 8.645 L 271.599 8.645 Q 271.483 8.933 271.426 9.048 L 271.426 9.048 L 271.426 9.048 Q 271.887 8.991 272.204 9.25 L 272.204 9.25 L 272.204 9.25 Q 272.52 9.509 273.212 9.567 L 273.212 9.567 L 273.212 9.567 Q 273.442 9.855 273.327 9.999 L 273.327 9.999 L 273.327 9.999 Q 273.212 10.143 273.212 10.489 L 273.212 10.489 L 273.212 10.489 Q 274.94 11.007 275.401 12.131 L 275.401 12.131 L 275.401 12.131 Q 275.862 13.255 275.459 14.464 L 275.459 14.464 L 275.459 14.464 Q 275.056 15.674 274.018 16.712 L 274.018 16.712 L 274.018 16.712 Q 272.981 17.749 271.771 18.094 L 271.771 18.094 L 271.771 18.094 Q 269.006 18.843 266.557 19.736 L 266.557 19.736 L 266.557 19.736 Q 264.108 20.63 262.553 22.358 L 262.553 22.358 L 262.553 22.358 Q 261.17 22.761 260.104 23.424 L 260.104 23.424 L 260.104 23.424 Q 259.038 24.087 258.087 24.922 L 258.087 24.922 L 258.087 24.922 Q 257.137 25.757 256.301 26.651 L 256.301 26.651 L 256.301 26.651 Q 255.466 27.544 254.544 28.408 L 254.544 28.408 L 254.544 28.408 Q 254.601 29.214 254.285 29.647 L 254.285 29.647 L 254.285 29.647 Q 253.968 30.079 253.68 30.54 L 253.68 30.54 L 253.68 30.54 Q 253.795 31.404 254.083 32.067 L 254.083 32.067 L 254.083 32.067 Q 254.371 32.729 254.717 33.363 L 254.717 33.363 L 254.717 33.363 Q 258.519 34.515 262.812 34.803 L 262.812 34.803 L 262.812 34.803 Q 267.104 35.091 271.426 35.149 L 271.426 35.149 L 271.426 35.149 Q 271.829 35.725 272.376 36.215 L 272.376 36.215 L 272.376 36.215 Q 272.924 36.705 273.385 37.252 L 273.385 37.252 L 273.385 37.252 Q 273.846 37.799 274.134 38.462 L 274.134 38.462 L 274.134 38.462 Q 274.422 39.125 274.249 40.104 L 274.249 40.104 L 274.249 40.104 Q 273.442 40.968 272.463 41.689 L 272.463 41.689 L 272.463 41.689 Q 271.483 42.409 270.504 43.158 Z  M 308.416 10.604 L 308.416 10.604 L 308.416 10.604 Q 308.474 11.007 308.445 11.209 L 308.445 11.209 L 308.445 11.209 Q 308.416 11.411 308.387 11.584 L 308.387 11.584 L 308.387 11.584 Q 308.358 11.756 308.358 11.958 L 308.358 11.958 L 308.358 11.958 Q 308.358 12.16 308.474 12.563 L 308.474 12.563 L 308.474 12.563 Q 307.264 14.522 305.679 15.242 L 305.679 15.242 L 305.679 15.242 Q 304.095 15.963 302.251 16.279 L 302.251 16.279 L 302.251 16.279 Q 300.407 16.596 298.477 16.942 L 298.477 16.942 L 298.477 16.942 Q 296.547 17.288 294.645 18.44 L 294.645 18.44 L 294.645 18.44 Q 293.896 18.152 293.291 18.44 L 293.291 18.44 L 293.291 18.44 Q 292.686 18.728 291.534 18.613 L 291.534 18.613 L 291.534 18.613 Q 291.188 18.959 290.67 19.103 L 290.67 19.103 L 290.67 19.103 Q 290.151 19.247 289.633 19.42 L 289.633 19.42 L 289.633 19.42 Q 289.863 19.938 289.834 20.485 L 289.834 20.485 L 289.834 20.485 Q 289.806 21.033 289.978 21.379 L 289.978 21.379 L 289.978 21.379 Q 291.995 21.551 294.444 21.321 L 294.444 21.321 L 294.444 21.321 Q 296.893 21.09 299.255 21.033 L 299.255 21.033 L 299.255 21.033 Q 299.312 21.321 299.197 21.407 L 299.197 21.407 L 299.197 21.407 Q 299.082 21.494 299.14 21.724 L 299.14 21.724 L 299.14 21.724 Q 299.543 22.012 299.946 22.444 L 299.946 22.444 L 299.946 22.444 Q 300.35 22.877 300.753 23.28 L 300.753 23.28 L 300.753 23.28 Q 301.156 23.683 301.588 23.943 L 301.588 23.943 L 301.588 23.943 Q 302.02 24.202 302.597 24.144 L 302.597 24.144 L 302.597 24.144 Q 302.827 24.605 302.913 25.152 L 302.913 25.152 L 302.913 25.152 Q 303 25.7 302.769 26.276 L 302.769 26.276 L 302.769 26.276 Q 301.848 26.91 300.926 27.572 L 300.926 27.572 L 300.926 27.572 Q 300.004 28.235 298.996 28.754 L 298.996 28.754 L 298.996 28.754 Q 297.987 29.272 296.864 29.589 L 296.864 29.589 L 296.864 29.589 Q 295.74 29.906 294.357 29.848 L 294.357 29.848 L 294.357 29.848 Q 294.069 29.848 293.925 29.848 L 293.925 29.848 L 293.925 29.848 Q 293.781 29.848 293.551 29.675 L 293.551 29.675 L 293.551 29.675 Q 293.09 29.963 292.254 29.848 L 292.254 29.848 L 292.254 29.848 Q 291.419 29.733 290.958 30.021 L 290.958 30.021 L 290.958 30.021 Q 290.324 29.733 289.431 29.762 L 289.431 29.762 L 289.431 29.762 Q 288.538 29.791 287.847 29.56 L 287.847 29.56 L 287.847 29.56 Q 286.925 30.77 286.176 32.153 L 286.176 32.153 L 286.176 32.153 Q 285.427 33.536 284.851 35.091 L 284.851 35.091 L 284.851 35.091 Q 286.809 35.38 288.106 35.322 L 288.106 35.322 L 288.106 35.322 Q 289.402 35.264 290.555 35.12 L 290.555 35.12 L 290.555 35.12 Q 291.707 34.976 292.917 34.832 L 292.917 34.832 L 292.917 34.832 Q 294.127 34.688 295.971 34.746 L 295.971 34.746 L 295.971 34.746 Q 297.123 34.112 298.707 33.91 L 298.707 33.91 L 298.707 33.91 Q 300.292 33.709 301.617 33.248 L 301.617 33.248 L 301.617 33.248 Q 302.078 33.421 302.424 33.853 L 302.424 33.853 L 302.424 33.853 Q 302.769 34.285 303.086 34.659 L 303.086 34.659 L 303.086 34.659 Q 303.403 35.034 303.749 35.322 L 303.749 35.322 L 303.749 35.322 Q 304.095 35.61 304.613 35.552 L 304.613 35.552 L 304.613 35.552 Q 304.844 35.783 304.93 36.1 L 304.93 36.1 L 304.93 36.1 Q 305.017 36.417 305.074 36.705 L 305.074 36.705 L 305.074 36.705 Q 305.132 36.993 305.276 37.194 L 305.276 37.194 L 305.276 37.194 Q 305.42 37.396 305.766 37.338 L 305.766 37.338 L 305.766 37.338 Q 304.901 39.24 303.778 40.248 L 303.778 40.248 L 303.778 40.248 Q 302.654 41.256 301.214 41.775 L 301.214 41.775 L 301.214 41.775 Q 299.773 42.294 298.016 42.582 L 298.016 42.582 L 298.016 42.582 Q 296.259 42.87 294.127 43.273 L 294.127 43.273 L 294.127 43.273 Q 293.608 43.388 293.263 43.244 L 293.263 43.244 L 293.263 43.244 Q 292.917 43.1 292.456 43.1 L 292.456 43.1 L 292.456 43.1 Q 291.131 43.388 289.287 43.619 L 289.287 43.619 L 289.287 43.619 Q 287.443 43.849 285.542 43.792 L 285.542 43.792 L 285.542 43.792 Q 283.641 43.734 281.912 43.302 L 281.912 43.302 L 281.912 43.302 Q 280.184 42.87 279.089 41.775 L 279.089 41.775 L 279.089 41.775 Q 278.628 41.372 278.484 40.824 L 278.484 40.824 L 278.484 40.824 Q 278.34 40.277 277.706 39.989 L 277.706 39.989 L 277.706 39.989 Q 277.648 39.24 277.476 38.318 L 277.476 38.318 L 277.476 38.318 Q 277.303 37.396 277.13 36.388 L 277.13 36.388 L 277.13 36.388 Q 276.957 35.38 276.871 34.4 L 276.871 34.4 L 276.871 34.4 Q 276.784 33.421 276.957 32.614 L 276.957 32.614 L 276.957 32.614 Q 277.13 31.75 277.677 31.058 L 277.677 31.058 L 277.677 31.058 Q 278.225 30.367 278.052 29.56 L 278.052 29.56 L 278.052 29.56 Q 278.34 29.503 278.397 29.243 L 278.397 29.243 L 278.397 29.243 Q 278.455 28.984 278.858 29.042 L 278.858 29.042 L 278.858 29.042 Q 279.204 28.005 279.607 27.083 L 279.607 27.083 L 279.607 27.083 Q 280.011 26.161 280.443 25.297 L 280.443 25.297 L 280.443 25.297 Q 280.875 24.432 281.307 23.539 L 281.307 23.539 L 281.307 23.539 Q 281.739 22.646 282.143 21.551 L 282.143 21.551 L 282.143 21.551 Q 281.336 20.802 280.961 19.909 L 280.961 19.909 L 280.961 19.909 Q 280.587 19.016 280.414 18.123 L 280.414 18.123 L 280.414 18.123 Q 280.241 17.23 280.126 16.279 L 280.126 16.279 L 280.126 16.279 Q 280.011 15.329 279.723 14.349 L 279.723 14.349 L 279.723 14.349 Q 280.299 13.485 281.134 12.938 L 281.134 12.938 L 281.134 12.938 Q 281.97 12.39 282.949 12.045 L 282.949 12.045 L 282.949 12.045 Q 283.929 11.699 285.081 11.468 L 285.081 11.468 L 285.081 11.468 Q 286.233 11.238 287.501 10.95 L 287.501 10.95 L 287.501 10.95 Q 289.806 10.201 291.621 9.797 L 291.621 9.797 L 291.621 9.797 Q 293.435 9.394 295.193 9.135 L 295.193 9.135 L 295.193 9.135 Q 296.95 8.876 298.851 8.645 L 298.851 8.645 L 298.851 8.645 Q 300.753 8.415 303.173 7.954 L 303.173 7.954 L 303.173 7.954 Q 303.691 8.472 304.152 8.472 L 304.152 8.472 L 304.152 8.472 Q 304.383 7.954 304.7 8.155 L 304.7 8.155 L 304.7 8.155 Q 305.017 8.357 304.959 7.838 L 304.959 7.838 L 304.959 7.838 Q 305.535 8.818 306.428 9.481 L 306.428 9.481 L 306.428 9.481 Q 307.321 10.143 308.416 10.604 Z " fill="rgb(255,255,255)"/></svg>